<svg width="400" height="66" viewBox="0 0 400 66" fill="none" xmlns="http://www.w3.org/2000/svg">
<path d="M146.323 53.5512C139.786 53.5512 134.255 48.5229 134.255 42.2376V40.2263H159.899C168.698 40.2263 175.989 33.4381 175.989 24.89V15.3363C175.989 7.0396 168.698 0 159.899 0H137.523C136.266 0 135.009 0 133.752 0.251414C130.232 1.00566 127.215 2.76556 124.952 5.53111C122.69 8.29667 121.433 11.5651 121.433 15.0849V20.616C121.433 21.1188 121.684 21.873 121.935 22.1244C122.438 22.6273 122.941 22.8787 123.444 22.8787H132.243C132.746 22.8787 133.249 22.6273 133.752 22.1244C134.003 21.6216 134.255 21.1188 134.255 20.616V17.0962C134.255 15.5877 135.009 14.3306 136.015 13.325C137.02 12.3193 138.529 11.8165 140.037 11.8165H157.636C159.145 11.8165 160.402 12.3193 161.659 13.325C162.665 14.3306 163.419 15.5877 163.419 17.0962V22.8787C163.419 24.3872 162.665 25.6442 161.659 26.6499C160.653 27.6556 159.145 28.1584 157.636 28.1584H114.142V39.9749H121.433V41.9862C121.433 54.8083 132.746 65.1163 146.323 65.1163H208.673V53.2998H146.323V53.5512Z" fill="#FFC328"/>
<path d="M89.503 0H62.8531C62.3503 0 61.8475 0.251414 61.3446 0.754243C60.8418 1.25707 60.8418 1.7599 60.8418 2.26273V62.8535C60.8418 63.3564 61.0932 64.1106 61.3446 64.362C61.8475 64.8649 62.3503 65.1163 62.8531 65.1163H71.4012C71.904 65.1163 72.4068 64.8649 72.9097 64.362C73.4125 63.8592 73.4125 63.3564 73.4125 62.8535V11.8165H89.2516C95.7884 11.8165 101.319 16.8447 101.319 23.1301V63.105C101.319 63.6078 101.571 64.362 102.074 64.6134C102.577 65.1163 103.079 65.1163 103.582 65.1163H111.879C112.382 65.1163 113.136 64.8649 113.387 64.6134C113.89 64.1106 114.142 63.6078 114.142 63.105V23.3815C114.393 10.5594 103.079 0 89.503 0Z" fill="#1423DC"/>
<path d="M51.2885 53.5512H17.3476C16.0905 53.5512 15.0848 53.0484 14.0792 52.2941C13.3249 51.5399 12.8221 50.2828 12.5707 49.2772V40.2263H32.6838C33.1867 40.2263 33.6895 39.9749 34.1923 39.7234C34.6952 39.2206 34.9466 38.7178 34.9466 38.215V30.6725C34.9466 30.1697 34.6952 29.6669 34.1923 29.164C33.6895 28.6612 33.1867 28.6612 32.6838 28.6612H12.5707V16.3419C12.5707 15.0849 13.0735 14.0792 14.0792 13.325C15.0848 12.3193 16.0905 11.8165 17.3476 11.8165H51.0371C51.5399 11.8165 52.0427 11.5651 52.5456 11.3136C53.0484 10.8108 53.2998 10.308 53.2998 9.80515V2.01131C53.2998 1.50848 53.0484 1.00566 52.5456 0.502828C52.2941 0.251414 51.7913 0 51.0371 0H17.0962C7.54243 0 0 7.29101 0 16.0905V49.2772C0 58.0767 7.79384 65.3677 17.0962 65.3677H51.0371C51.5399 65.3677 52.0427 65.1163 52.5456 64.8649C53.0484 64.362 53.2998 63.8592 53.2998 63.3564V55.5625C53.2998 55.0597 53.0484 54.5569 52.5456 54.054C52.2941 53.5512 51.7913 53.5512 51.2885 53.5512Z" fill="#1423DC"/>
<path d="M236.329 54.054C235.826 53.5512 235.324 53.5512 234.821 53.5512H200.88C199.623 53.5512 198.617 53.0484 197.611 52.2941C196.857 51.5399 196.354 50.2828 196.103 49.2772V43.4946V40.2263V28.4098V16.3419C196.103 15.0849 196.606 14.0792 197.611 13.325C198.366 12.5707 199.623 12.0679 200.88 12.0679H234.569C235.072 12.0679 235.575 11.8165 236.078 11.5651C236.581 11.0622 236.832 10.5594 236.832 10.0566V2.01131C236.832 1.50848 236.581 1.00566 236.078 0.502828C235.826 0.251414 235.324 0 234.821 0H200.628C191.326 0 183.532 7.29101 183.532 16.0905V49.2772C183.532 58.0767 191.326 65.3677 200.628 65.3677H234.569C235.072 65.3677 235.575 65.1163 236.078 64.8649C236.581 64.362 236.832 63.8592 236.832 63.3564V55.5625C237.083 54.8083 236.832 54.3055 236.329 54.054Z" fill="#1423DC"/>
<path d="M280.83 0H264.488H261.722C252.168 0 244.626 7.29101 244.626 16.0905V49.2772C244.626 58.0767 252.42 65.3677 261.722 65.3677H275.55H280.83C290.383 65.3677 297.926 58.0767 297.926 49.2772V16.0905C298.177 7.29101 290.383 0 280.83 0ZM285.355 49.0258C285.355 50.2828 284.852 51.2885 283.847 52.0427C283.092 52.797 281.835 53.2998 280.578 53.2998H264.488H261.974C260.716 53.2998 259.711 52.797 258.705 52.0427C257.951 51.2885 257.448 50.0314 257.197 49.0258V43.2432V39.9748V28.1584V16.3419C257.197 15.0849 257.7 14.0792 258.705 13.325C259.459 12.5707 260.716 12.0679 261.974 12.0679H275.55H280.578C281.835 12.0679 282.841 12.5707 283.847 13.325C284.601 14.0792 285.104 15.3363 285.355 16.3419V22.1244V25.3928V37.2093V49.0258Z" fill="#1423DC"/>
<path d="M375.11 0H334.381H307.982C307.479 0 306.976 0.251414 306.474 0.754242C305.971 1.25707 305.971 1.7599 305.971 2.26273V62.8535C305.971 63.3564 306.222 64.1106 306.474 64.362C306.976 64.8649 307.479 65.1163 307.982 65.1163H316.53C317.033 65.1163 317.536 64.8649 318.039 64.362C318.541 63.8592 318.541 63.3564 318.541 62.8535V11.8165H334.381C340.917 11.8165 346.448 16.8447 346.448 23.1301V63.105C346.448 63.6078 346.7 64.362 347.203 64.6134C347.705 65.1163 348.208 65.1163 348.711 65.1163H357.008C357.511 65.1163 358.265 64.8649 358.516 64.6134C359.019 64.1106 359.271 63.6078 359.271 63.105V23.3815C359.271 19.3589 358.013 15.3363 356.002 12.0679H375.11C381.646 12.0679 387.177 17.0962 387.177 23.3815V63.3564C387.177 63.8592 387.429 64.6134 387.932 64.8649C388.435 65.3677 388.937 65.3677 389.44 65.3677H397.737C398.24 65.3677 398.994 65.1163 399.245 64.8649C399.748 64.362 400 63.8592 400 63.3564V23.3815C400 10.5594 388.686 0 375.11 0Z" fill="#1423DC"/>
</svg>
